<svg width="81" height="108" viewBox="0 0 81 108" fill="none" xmlns="http://www.w3.org/2000/svg">
<path fill-rule="evenodd" clip-rule="evenodd" d="M48.467 82.3596L67.6538 87.507L79.2927 44.019C84.2917 25.3387 73.3117 6.16237 54.7674 1.18755C36.2236 -3.78728 17.1382 7.32325 12.1386 26.0036L0.5 69.4913L19.6871 74.6387L15.8075 89.1346C13.6646 97.1409 18.3705 105.359 26.3178 107.491C34.2658 109.623 42.4451 104.862 44.588 96.8554L48.467 82.3596ZM60.6469 75.2697L69.699 41.4454C73.2702 28.1023 65.4267 14.4049 52.1817 10.8514C38.9356 7.298 25.3029 15.2341 21.7323 28.5772L12.6796 62.4014L31.8664 67.5488L25.4006 91.7086C24.6867 94.3774 26.2549 97.1165 28.9046 97.8269C31.5537 98.538 34.2798 96.9508 34.9943 94.282L41.4601 70.1223L60.6469 75.2697Z" fill="#2EA4AB"/>
</svg>
