<svg width="54" height="72" viewBox="0 0 54 72" fill="none" xmlns="http://www.w3.org/2000/svg">
<path fill-rule="evenodd" clip-rule="evenodd" d="M32.33 54.9064L44.9123 58.338L52.5448 29.346C55.8231 16.8924 48.6227 4.10825 36.4617 0.7917C24.301 -2.52486 11.7852 4.88217 8.50659 17.3357L0.874268 46.3275L13.4568 49.7591L10.9126 59.423C9.50736 64.7606 12.5934 70.2392 17.8051 71.6606C23.0171 73.0823 28.381 69.9079 29.7862 64.5703L32.33 54.9064ZM40.3174 50.1798L46.2535 27.6303C48.5954 18.7349 43.4518 9.60325 34.7661 7.23429C26.0795 4.86533 17.1395 10.1561 14.7979 19.0515L8.8614 41.6009L21.4437 45.0326L17.2035 61.1391C16.7354 62.9183 17.7638 64.7443 19.5014 65.218C21.2387 65.692 23.0263 64.6339 23.4949 62.8547L27.7351 46.7482L40.3174 50.1798Z" fill="#2EA4AB"/>
</svg>
