<svg width="348" height="72" viewBox="0 0 348 72" fill="none" xmlns="http://www.w3.org/2000/svg">
<path fill-rule="evenodd" clip-rule="evenodd" d="M32.33 54.9064L44.9123 58.338L52.5448 29.346C55.8231 16.8924 48.6227 4.10825 36.4617 0.7917C24.301 -2.52486 11.7852 4.88217 8.50659 17.3357L0.874268 46.3275L13.4568 49.7591L10.9126 59.423C9.50736 64.7606 12.5934 70.2392 17.8051 71.6606C23.0171 73.0823 28.381 69.9079 29.7862 64.5703L32.33 54.9064ZM40.3174 50.1798L46.2535 27.6303C48.5954 18.7349 43.4518 9.60325 34.7661 7.23429C26.0795 4.86533 17.1395 10.1561 14.7979 19.0515L8.8614 41.6009L21.4437 45.0326L17.2035 61.1391C16.7354 62.9183 17.7638 64.7443 19.5014 65.218C21.2387 65.692 23.0263 64.6339 23.4949 62.8547L27.7351 46.7482L40.3174 50.1798Z" fill="#2EA4AB"/>
<path d="M82.2812 16.1016H102.065C106.538 16.1016 110.476 16.9165 113.878 18.5464C117.319 20.1383 119.976 22.4315 121.849 25.4259C123.76 28.4203 124.716 31.9454 124.716 36.0011C124.716 40.0568 123.76 43.5818 121.849 46.5762C119.976 49.5706 117.319 51.8828 113.878 53.5126C110.476 55.1046 106.538 55.9006 102.065 55.9006H82.2812V16.1016ZM101.492 45.4391C104.397 45.4391 106.71 44.6242 108.43 42.9943C110.189 41.3265 111.068 38.9955 111.068 36.0011C111.068 33.0067 110.189 30.6945 108.43 29.0647C106.71 27.3969 104.397 26.563 101.492 26.563H95.8146V45.4391H101.492ZM129.658 16.1016H143.191V55.9006H129.658V16.1016ZM185.546 55.9006L185.431 37.7636L176.715 52.3187H170.751L162.035 38.389V55.9006H149.706V16.1016H160.831L173.905 37.3087L186.636 16.1016H197.76L197.875 55.9006H185.546ZM204.419 16.1016H217.952V55.9006H204.419V16.1016ZM243.791 16.1016C247.5 16.1016 250.73 16.708 253.483 17.9209C256.235 19.1339 258.357 20.8774 259.848 23.1517C261.339 25.4259 262.084 28.0792 262.084 31.1115C262.084 34.1438 261.339 36.797 259.848 39.0713C258.357 41.3455 256.235 43.0891 253.483 44.302C250.73 45.5149 247.5 46.1214 243.791 46.1214H238V55.9006H224.466V16.1016H243.791ZM242.931 35.7736C244.766 35.7736 246.143 35.3757 247.06 34.5797C247.978 33.7458 248.436 32.5897 248.436 31.1115C248.436 29.6332 247.978 28.4961 247.06 27.7001C246.143 26.8662 244.766 26.4493 242.931 26.4493H238V35.7736H242.931ZM291.86 48.9642H276.607L273.912 55.9006H260.149L277.696 16.1016H291L308.548 55.9006H294.556L291.86 48.9642ZM288.133 39.2987L284.234 29.2921L280.334 39.2987H288.133ZM331.987 41.4592V55.9006H318.453V41.2886L303.314 16.1016H317.593L325.793 29.8606L334.051 16.1016H347.125L331.987 41.4592Z" fill="#2EA4AB"/>
</svg>
