<svg width="204" height="32" viewBox="0 0 204 32" fill="none" xmlns="http://www.w3.org/2000/svg">
<path d="M0.5 0.5H15.6641C19.0925 0.5 22.1107 1.13477 24.7186 2.40429C27.3559 3.64429 29.3924 5.43048 30.8282 7.76286C32.2933 10.0952 33.0259 12.841 33.0259 16C33.0259 19.159 32.2933 21.9048 30.8282 24.2372C29.3924 26.5695 27.3559 28.3705 24.7186 29.64C22.1107 30.88 19.0925 31.5 15.6641 31.5H0.5V0.5ZM15.2246 23.3514C17.4516 23.3514 19.2244 22.7167 20.543 21.4471C21.8909 20.1481 22.5649 18.3324 22.5649 16C22.5649 13.6676 21.8909 11.8667 20.543 10.5971C19.2244 9.2981 17.4516 8.64857 15.2246 8.64857H10.8731V23.3514H15.2246ZM36.8135 0.5H47.1866V31.5H36.8135V0.5ZM79.6513 31.5L79.5633 17.3729L72.8824 28.71H68.3111L61.6301 17.86V31.5H52.1802V0.5H60.7073L70.7286 17.0186L80.4864 0.5H89.0134L89.1014 31.5H79.6513ZM94.117 0.5H104.49V31.5H94.117V0.5ZM124.296 0.5C127.138 0.5 129.614 0.972382 131.724 1.91714C133.834 2.86191 135.46 4.22001 136.603 5.99143C137.746 7.76286 138.317 9.82952 138.317 12.1914C138.317 14.5533 137.746 16.62 136.603 18.3914C135.46 20.1629 133.834 21.521 131.724 22.4657C129.614 23.4105 127.138 23.8829 124.296 23.8829H119.856V31.5H109.483V0.5H124.296ZM123.636 15.8229C125.043 15.8229 126.098 15.5129 126.801 14.8929C127.504 14.2433 127.856 13.3429 127.856 12.1914C127.856 11.04 127.504 10.1543 126.801 9.53429C126.098 8.88476 125.043 8.56 123.636 8.56H119.856V15.8229H123.636ZM161.14 26.0971H149.448L147.382 31.5H136.833L150.283 0.5H160.481L173.931 31.5H163.206L161.14 26.0971ZM158.283 18.5686L155.294 10.7743L152.305 18.5686H158.283ZM191.896 20.2514V31.5H181.523V20.1186L169.919 0.5H180.864L187.149 11.2171L193.479 0.5H203.5L191.896 20.2514Z" fill="#2EA4AB"/>
</svg>
